<?xml version="1.0" encoding="utf-8"?>
<svg xmlns="http://www.w3.org/2000/svg" style="margin: auto; background: none; display: block; shape-rendering: auto;" width="145" height="71" preserveAspectRatio="xMidYMid">
<style type="text/css">
  text {
    text-anchor: middle; font-size: 46px; opacity: 0;
  }
</style>
<g style="transform-origin:72.5px 35.5px;transform:scale(1)">
<g transform="translate(72.5,35.5)">
  <g transform="translate(0,0)"><g class="path" style="transform: scale(0.91); transform-origin: -31.605px -3.81493px; animation: 0.392157s linear -0.172549s infinite normal forwards running breath-bc6d2d1e-0ee9-463b-8ed0-c5ba87c1a754;"><path d="M7.79-22.19L7.79 0L3.66 0L3.66-32.34L9.46-32.34L29.11-10.13L29.11-32.34L33.22-32.34L33.22 0L27.42 0L7.79-22.19" fill="#df1317" stroke="none" stroke-width="none" transform="translate(-50.045013427734375,12.355065816243487)" style="fill: rgb(223, 19, 23);"></path></g><g class="path" style="transform: scale(0.91); transform-origin: 1.23499px -0.669933px; animation: 0.392157s linear -0.0862745s infinite normal forwards running breath-bc6d2d1e-0ee9-463b-8ed0-c5ba87c1a754;"><path d="M45.80-12.31L45.80-12.31L45.80-12.31Q47.19-11.99 48.58-11.81L48.58-11.81L48.58-11.81Q49.98-11.63 51.39-11.63L51.39-11.63L51.39-11.63Q52.87-11.63 54.14-11.92L54.14-11.92L54.14-11.92Q55.41-12.20 56.34-12.86L56.34-12.86L56.34-12.86Q57.28-13.52 57.81-14.62L57.81-14.62L57.81-14.62Q58.35-15.72 58.35-17.36L58.35-17.36L58.35-17.36Q58.35-18.69 57.99-19.79L57.99-19.79L57.99-19.79Q57.63-20.89 56.93-21.67L56.93-21.67L56.93-21.67Q56.22-22.46 55.19-22.90L55.19-22.90L55.19-22.90Q54.15-23.34 52.78-23.34L52.78-23.34L52.78-23.34Q51.50-23.34 50.48-22.87L50.48-22.87L50.48-22.87Q49.46-22.39 48.68-21.60L48.68-21.60L48.68-21.60Q47.91-20.80 47.36-19.74L47.36-19.74L47.36-19.74Q46.81-18.69 46.45-17.54L46.45-17.54L46.45-17.54Q46.09-16.40 45.93-15.23L45.93-15.23L45.93-15.23Q45.78-14.06 45.78-13.03L45.78-13.03L45.78-13.03Q45.78-12.85 45.78-12.67L45.78-12.67L45.78-12.67Q45.78-12.49 45.80-12.31zM64.51-17.43L64.51-17.43L64.51-17.43Q64.51-15.83 63.99-14.59L63.99-14.59L63.99-14.59Q63.47-13.34 62.59-12.40L62.59-12.40L62.59-12.40Q61.70-11.46 60.53-10.80L60.53-10.80L60.53-10.80Q59.36-10.15 58.04-9.74L58.04-9.74L58.04-9.74Q56.71-9.32 55.31-9.14L55.31-9.14L55.31-9.14Q53.91-8.96 52.58-8.96L52.58-8.96L52.58-8.96Q50.90-8.96 49.26-9.20L49.26-9.20L49.26-9.20Q47.62-9.43 46.02-9.95L46.02-9.95L46.02-9.95Q46.27-8.47 46.81-7.13L46.81-7.13L46.81-7.13Q47.35-5.79 48.25-4.80L48.25-4.80L48.25-4.80Q49.14-3.80 50.46-3.21L50.46-3.21L50.46-3.21Q51.77-2.63 53.57-2.63L53.57-2.63L53.57-2.63Q54.76-2.63 55.84-2.99L55.84-2.99L55.84-2.99Q56.92-3.35 57.81-4.00L57.81-4.00L57.81-4.00Q58.71-4.65 59.40-5.55L59.40-5.55L59.40-5.55Q60.08-6.45 60.51-7.55L60.51-7.55L63.79-6.33L63.79-6.33Q63.05-4.56 61.76-3.27L61.76-3.27L61.76-3.27Q60.46-1.98 58.84-1.13L58.84-1.13L58.84-1.13Q57.21-0.29 55.38 0.11L55.38 0.11L55.38 0.11Q53.55 0.52 51.75 0.52L51.75 0.52L51.75 0.52Q48.79 0.52 46.27-0.48L46.27-0.48L46.27-0.48Q43.75-1.48 41.93-3.28L41.93-3.28L41.93-3.28Q40.12-5.08 39.08-7.57L39.08-7.57L39.08-7.57Q38.05-10.06 38.05-13.03L38.05-13.03L38.05-13.03Q38.05-15.99 39.08-18.49L39.08-18.49L39.08-18.49Q40.12-20.98 41.93-22.78L41.93-22.78L41.93-22.78Q43.75-24.57 46.27-25.57L46.27-25.57L46.27-25.57Q48.79-26.57 51.75-26.57L51.75-26.57L51.75-26.57Q53.19-26.57 54.69-26.37L54.69-26.37L54.69-26.37Q56.20-26.17 57.61-25.73L57.61-25.73L57.61-25.73Q59.03-25.29 60.29-24.59L60.29-24.59L60.29-24.59Q61.54-23.90 62.48-22.88L62.48-22.88L62.48-22.88Q63.41-21.85 63.96-20.51L63.96-20.51L63.96-20.51Q64.51-19.16 64.51-17.43" fill="#df1317" stroke="none" stroke-width="none" transform="translate(-50.045013427734375,12.355065816243487)" style="fill: rgb(223, 19, 23);"></path></g><g class="path" style="transform: scale(0.91); transform-origin: 35.33px -0.614934px; animation: 0.392157s linear 0s infinite normal forwards running breath-bc6d2d1e-0ee9-463b-8ed0-c5ba87c1a754;"><path d="M85.22-15.77L80.93 0L74.10 0L67.00-25.94L74.59-25.94L79.04-7.75L82.75-25.94L89.57-25.94L94.11-7.25L98.49-25.94L103.75-25.94L95.89 0L89.06 0L85.22-15.77" fill="#df1317" stroke="none" stroke-width="none" transform="translate(-50.045013427734375,12.355065816243487)" style="fill: rgb(223, 19, 23);"></path></g></g>
</g>
</g>
<style id="breath-bc6d2d1e-0ee9-463b-8ed0-c5ba87c1a754" data-anikit="">@keyframes breath-bc6d2d1e-0ee9-463b-8ed0-c5ba87c1a754
{
  0% {
    animation-timing-function: cubic-bezier(0.9647,0.2413,-0.0705,0.7911);
    transform: scale(0.9099999999999999);
  }
  51% {
    animation-timing-function: cubic-bezier(0.9226,0.2631,-0.0308,0.7628);
    transform: scale(1.02994);
  }
  100% {
    transform: scale(0.9099999999999999);
  }
}</style></svg>