<?xml version="1.0" encoding="utf-8"?>
<svg xmlns="http://www.w3.org/2000/svg" style="margin: auto; background: none; display: block; shape-rendering: auto;" width="220" height="84" preserveAspectRatio="xMidYMid">
<style type="text/css">
  text {
    text-anchor: middle; font-size: 46px; opacity: 0;
  }
</style>
<g style="transform-origin:110px 42px;transform:scale(1)">
<g transform="translate(110,42)">
  <g transform="translate(0,0)"><g class="path" style="transform: scale(0.91); transform-origin: -72.2498px -1.42686px; animation: 0.392157s linear -0.215686s infinite normal forwards running breath-bc6d2d1e-0ee9-463b-8ed0-c5ba87c1a754;"><path d="M6.60-32.34L13.14-32.34L13.14-32.34Q12.53-30.52 12.08-28.58L12.08-28.58L12.08-28.58Q11.63-26.64 11.34-24.70L11.34-24.70L11.34-24.70Q11.05-22.75 10.90-20.87L10.90-20.87L10.90-20.87Q10.76-18.98 10.76-17.29L10.76-17.29L10.76-17.29Q10.76-16.06 10.77-14.52L10.77-14.52L10.77-14.52Q10.78-12.98 10.95-11.39L10.95-11.39L10.95-11.39Q11.12-9.79 11.50-8.28L11.50-8.28L11.50-8.28Q11.88-6.76 12.63-5.57L12.63-5.57L12.63-5.57Q13.39-4.38 14.57-3.66L14.57-3.66L14.57-3.66Q15.75-2.94 17.50-2.94L17.50-2.94L17.50-2.94Q19.05-2.94 20.16-3.47L20.16-3.47L20.16-3.47Q21.27-4.00 22.05-4.90L22.05-4.90L22.05-4.90Q22.82-5.79 23.28-6.96L23.28-6.96L23.28-6.96Q23.74-8.13 24.00-9.41L24.00-9.41L24.00-9.41Q24.26-10.69 24.34-12.01L24.34-12.01L24.34-12.01Q24.42-13.32 24.42-14.51L24.42-14.51L24.42-32.34L33.33-32.34L33.33-15.90L33.33-15.90Q33.33-12.38 32.21-9.34L32.21-9.34L32.21-9.34Q31.09-6.31 29.04-4.08L29.04-4.08L29.04-4.08Q27.00-1.84 24.10-0.57L24.10-0.57L24.10-0.57Q21.20 0.70 17.68 0.70L17.68 0.70L17.68 0.70Q15.25 0.70 13.16 0.01L13.16 0.01L13.16 0.01Q11.07-0.67 9.33-1.88L9.33-1.88L9.33-1.88Q7.59-3.08 6.23-4.73L6.23-4.73L6.23-4.73Q4.87-6.38 3.96-8.33L3.96-8.33L3.96-8.33Q3.05-10.29 2.58-12.45L2.58-12.45L2.58-12.45Q2.11-14.62 2.16-16.85L2.16-16.85L2.16-17.29L2.16-17.29Q2.18-19.09 2.52-21.01L2.52-21.01L2.52-21.01Q2.85-22.93 3.43-24.86L3.43-24.86L3.43-24.86Q4.00-26.80 4.81-28.69L4.81-28.69L4.81-28.69Q5.62-30.59 6.60-32.34L6.60-32.34" fill="#df1317" stroke="none" stroke-width="none" transform="translate(-89.99240112304688,14.393135884602861)" style="fill: rgb(223, 19, 23);"></path></g><g class="path" style="transform: scale(0.91); transform-origin: -36.4224px 7.09314px; animation: 0.392157s linear -0.172549s infinite normal forwards running breath-bc6d2d1e-0ee9-463b-8ed0-c5ba87c1a754;"><path d="M67.36-13.03L67.36-13.03L67.36-13.03Q67.36-10.20 66.51-7.73L66.51-7.73L66.51-7.73Q65.65-5.26 64.04-3.43L64.04-3.43L64.04-3.43Q62.42-1.59 60.08-0.54L60.08-0.54L60.08-0.54Q57.75 0.52 54.78 0.52L54.78 0.52L54.78 0.52Q52.51 0.52 50.62-0.37L50.62-0.37L50.62-0.37Q48.72-1.26 47.37-3.10L47.37-3.10L47.37 11.97L39.78 11.97L39.78-25.94L42.70-25.94L46.07-20.30L46.07-20.30Q46.56-21.72 47.43-22.88L47.43-22.88L47.43-22.88Q48.29-24.03 49.43-24.85L49.43-24.85L49.43-24.85Q50.56-25.67 51.92-26.12L51.92-26.12L51.92-26.12Q53.28-26.57 54.78-26.57L54.78-26.57L54.78-26.57Q57.75-26.57 60.08-25.52L60.08-25.52L60.08-25.52Q62.42-24.46 64.04-22.63L64.04-22.63L64.04-22.63Q65.65-20.80 66.51-18.33L66.51-18.33L66.51-18.33Q67.36-15.86 67.36-13.03zM59.66-13.03L59.66-13.03L59.66-13.03Q59.66-14.02 59.56-15.13L59.56-15.13L59.56-15.13Q59.45-16.24 59.21-17.34L59.21-17.34L59.21-17.34Q58.96-18.44 58.52-19.45L58.52-19.45L58.52-19.45Q58.08-20.46 57.41-21.24L57.41-21.24L57.41-21.24Q56.74-22.01 55.78-22.47L55.78-22.47L55.78-22.47Q54.83-22.93 53.57-22.93L53.57-22.93L53.57-22.93Q52.27-22.93 51.31-22.48L51.31-22.48L51.31-22.48Q50.36-22.03 49.67-21.26L49.67-21.26L49.67-21.26Q48.99-20.48 48.55-19.48L48.55-19.48L48.55-19.48Q48.11-18.49 47.86-17.38L47.86-17.38L47.86-17.38Q47.62-16.28 47.52-15.16L47.52-15.16L47.52-15.16Q47.42-14.04 47.42-13.03L47.42-13.03L47.42-13.03Q47.42-12.13 47.55-11.04L47.55-11.04L47.55-11.04Q47.68-9.95 47.98-8.85L47.98-8.85L47.98-8.85Q48.27-7.75 48.74-6.72L48.74-6.72L48.74-6.72Q49.21-5.68 49.90-4.87L49.90-4.87L49.90-4.87Q50.58-4.07 51.49-3.58L51.49-3.58L51.49-3.58Q52.40-3.10 53.57-3.10L53.57-3.10L53.57-3.10Q54.85-3.10 55.79-3.56L55.79-3.56L55.79-3.56Q56.74-4.02 57.41-4.80L57.41-4.80L57.41-4.80Q58.08-5.57 58.52-6.58L58.52-6.58L58.52-6.58Q58.96-7.59 59.21-8.69L59.21-8.69L59.21-8.69Q59.45-9.79 59.56-10.92L59.56-10.92L59.56-10.92Q59.66-12.04 59.66-13.03" fill="#df1317" stroke="none" stroke-width="none" transform="translate(-89.99240112304688,14.393135884602861)" style="fill: rgb(223, 19, 23);"></path></g><g class="path" style="transform: scale(0.91); transform-origin: -5.4024px -3.04687px; animation: 0.392157s linear -0.129412s infinite normal forwards running breath-bc6d2d1e-0ee9-463b-8ed0-c5ba87c1a754;"><path d="M98.38-35.49L98.38 0L95.46 0L92.09-5.64L92.09-5.64Q91.60-4.22 90.73-3.08L90.73-3.08L90.73-3.08Q89.87-1.93 88.73-1.11L88.73-1.11L88.73-1.11Q87.60-0.29 86.24 0.16L86.24 0.16L86.24 0.16Q84.88 0.61 83.38 0.61L83.38 0.61L83.38 0.61Q80.41 0.61 78.07-0.45L78.07-0.45L78.07-0.45Q75.74-1.50 74.12-3.34L74.12-3.34L74.12-3.34Q72.50-5.17 71.65-7.64L71.65-7.64L71.65-7.64Q70.80-10.11 70.80-12.94L70.80-12.94L70.80-12.94Q70.80-15.77 71.65-18.24L71.65-18.24L71.65-18.24Q72.50-20.71 74.12-22.53L74.12-22.53L74.12-22.53Q75.74-24.35 78.07-25.40L78.07-25.40L78.07-25.40Q80.41-26.46 83.38-26.46L83.38-26.46L83.38-26.46Q85.64-26.46 87.54-25.58L87.54-25.58L87.54-25.58Q89.44-24.71 90.79-22.84L90.79-22.84L90.79-35.49L98.38-35.49zM90.74-12.94L90.74-12.94L90.74-12.94Q90.74-13.84 90.61-14.91L90.61-14.91L90.61-14.91Q90.47-15.99 90.18-17.09L90.18-17.09L90.18-17.09Q89.89-18.19 89.42-19.23L89.42-19.23L89.42-19.23Q88.95-20.26 88.26-21.07L88.26-21.07L88.26-21.07Q87.58-21.88 86.67-22.36L86.67-22.36L86.67-22.36Q85.76-22.84 84.59-22.84L84.59-22.84L84.59-22.84Q83.31-22.84 82.36-22.38L82.36-22.38L82.36-22.38Q81.42-21.92 80.75-21.15L80.75-21.15L80.75-21.15Q80.07-20.37 79.64-19.36L79.64-19.36L79.64-19.36Q79.20-18.35 78.95-17.25L78.95-17.25L78.95-17.25Q78.70-16.15 78.60-15.04L78.60-15.04L78.60-15.04Q78.50-13.93 78.50-12.94L78.50-12.94L78.50-12.94Q78.50-11.95 78.60-10.84L78.60-10.84L78.60-10.84Q78.70-9.73 78.95-8.63L78.95-8.63L78.95-8.63Q79.20-7.52 79.64-6.50L79.64-6.50L79.64-6.50Q80.07-5.48 80.75-4.71L80.75-4.71L80.75-4.71Q81.42-3.93 82.36-3.47L82.36-3.47L82.36-3.47Q83.31-3.01 84.59-3.01L84.59-3.01L84.59-3.01Q85.87-3.01 86.83-3.46L86.83-3.46L86.83-3.46Q87.80-3.91 88.48-4.68L88.48-4.68L88.48-4.68Q89.17-5.46 89.61-6.46L89.61-6.46L89.61-6.46Q90.05-7.46 90.29-8.57L90.29-8.57L90.29-8.57Q90.54-9.68 90.64-10.80L90.64-10.80L90.64-10.80Q90.74-11.93 90.74-12.94" fill="#df1317" stroke="none" stroke-width="none" transform="translate(-89.99240112304688,14.393135884602861)" style="fill: rgb(223, 19, 23);"></path></g><g class="path" style="transform: scale(0.91); transform-origin: 27.0476px 1.36814px; animation: 0.392157s linear -0.0862745s infinite normal forwards running breath-bc6d2d1e-0ee9-463b-8ed0-c5ba87c1a754;"><path d="M130.83-25.94L130.83 0L123.24 0L123.24-3.10L123.24-3.10Q121.90-1.26 120.00-0.37L120.00-0.37L120.00-0.37Q118.10 0.52 115.83 0.52L115.83 0.52L115.83 0.52Q112.87 0.52 110.53-0.54L110.53-0.54L110.53-0.54Q108.19-1.59 106.58-3.43L106.58-3.43L106.58-3.43Q104.96-5.26 104.11-7.73L104.11-7.73L104.11-7.73Q103.25-10.20 103.25-13.03L103.25-13.03L103.25-13.03Q103.25-15.86 104.11-18.33L104.11-18.33L104.11-18.33Q104.96-20.80 106.58-22.63L106.58-22.63L106.58-22.63Q108.19-24.46 110.53-25.52L110.53-25.52L110.53-25.52Q112.87-26.57 115.83-26.57L115.83-26.57L115.83-26.57Q117.34-26.57 118.69-26.12L118.69-26.12L118.69-26.12Q120.05-25.67 121.19-24.85L121.19-24.85L121.19-24.85Q122.32-24.03 123.19-22.88L123.19-22.88L123.19-22.88Q124.05-21.72 124.55-20.30L124.55-20.30L127.92-25.94L130.83-25.94zM123.20-13.03L123.20-13.03L123.20-13.03Q123.20-14.04 123.10-15.16L123.10-15.16L123.10-15.16Q123.00-16.28 122.75-17.38L122.75-17.38L122.75-17.38Q122.50-18.49 122.06-19.48L122.06-19.48L122.06-19.48Q121.63-20.48 120.94-21.26L120.94-21.26L120.94-21.26Q120.26-22.03 119.29-22.48L119.29-22.48L119.29-22.48Q118.32-22.93 117.04-22.93L117.04-22.93L117.04-22.93Q115.76-22.93 114.82-22.47L114.82-22.47L114.82-22.47Q113.88-22.01 113.20-21.24L113.20-21.24L113.20-21.24Q112.53-20.46 112.09-19.45L112.09-19.45L112.09-19.45Q111.65-18.44 111.41-17.34L111.41-17.34L111.41-17.34Q111.16-16.24 111.06-15.13L111.06-15.13L111.06-15.13Q110.96-14.02 110.96-13.03L110.96-13.03L110.96-13.03Q110.96-12.04 111.06-10.92L111.06-10.92L111.06-10.92Q111.16-9.79 111.41-8.69L111.41-8.69L111.41-8.69Q111.65-7.59 112.09-6.58L112.09-6.58L112.09-6.58Q112.53-5.57 113.20-4.80L113.20-4.80L113.20-4.80Q113.88-4.02 114.82-3.56L114.82-3.56L114.82-3.56Q115.76-3.10 117.04-3.10L117.04-3.10L117.04-3.10Q118.21-3.10 119.12-3.58L119.12-3.58L119.12-3.58Q120.03-4.07 120.72-4.87L120.72-4.87L120.72-4.87Q121.40-5.68 121.87-6.72L121.87-6.72L121.87-6.72Q122.34-7.75 122.64-8.85L122.64-8.85L122.64-8.85Q122.93-9.95 123.06-11.04L123.06-11.04L123.06-11.04Q123.20-12.13 123.20-13.03" fill="#df1317" stroke="none" stroke-width="none" transform="translate(-89.99240112304688,14.393135884602861)" style="fill: rgb(223, 19, 23);"></path></g><g class="path" style="transform: scale(0.91); transform-origin: 54.7126px -3.35187px; animation: 0.392157s linear -0.0431373s infinite normal forwards running breath-bc6d2d1e-0ee9-463b-8ed0-c5ba87c1a754;"><path d="M146.94-22.93L146.94 0L139.33 0L139.33-22.93L134.61-22.93L134.61-25.94L139.33-25.94L139.33-35.49L146.94-35.49L146.94-25.94L154.80-25.94L154.80-22.93L146.94-22.93" fill="#df1317" stroke="none" stroke-width="none" transform="translate(-89.99240112304688,14.393135884602861)" style="fill: rgb(223, 19, 23);"></path></g><g class="path" style="transform: scale(0.91); transform-origin: 78.9176px 1.36814px; animation: 0.392157s linear 0s infinite normal forwards running breath-bc6d2d1e-0ee9-463b-8ed0-c5ba87c1a754;"><path d="M163.43-12.31L163.43-12.31L163.43-12.31Q164.82-11.99 166.21-11.81L166.21-11.81L166.21-11.81Q167.60-11.63 169.02-11.63L169.02-11.63L169.02-11.63Q170.50-11.63 171.77-11.92L171.77-11.92L171.77-11.92Q173.04-12.20 173.97-12.86L173.97-12.86L173.97-12.86Q174.90-13.52 175.44-14.62L175.44-14.62L175.44-14.62Q175.98-15.72 175.98-17.36L175.98-17.36L175.98-17.36Q175.98-18.69 175.62-19.79L175.62-19.79L175.62-19.79Q175.26-20.89 174.56-21.67L174.56-21.67L174.56-21.67Q173.85-22.46 172.81-22.90L172.81-22.90L172.81-22.90Q171.78-23.34 170.41-23.34L170.41-23.34L170.41-23.34Q169.13-23.34 168.11-22.87L168.11-22.87L168.11-22.87Q167.09-22.39 166.31-21.60L166.31-21.60L166.31-21.60Q165.54-20.80 164.99-19.74L164.99-19.74L164.99-19.74Q164.44-18.69 164.08-17.54L164.08-17.54L164.08-17.54Q163.72-16.40 163.56-15.23L163.56-15.23L163.56-15.23Q163.40-14.06 163.40-13.03L163.40-13.03L163.40-13.03Q163.40-12.85 163.40-12.67L163.40-12.67L163.40-12.67Q163.40-12.49 163.43-12.31zM182.14-17.43L182.14-17.43L182.14-17.43Q182.14-15.83 181.62-14.59L181.62-14.59L181.62-14.59Q181.10-13.34 180.22-12.40L180.22-12.40L180.22-12.40Q179.33-11.46 178.16-10.80L178.16-10.80L178.16-10.80Q176.99-10.15 175.67-9.74L175.67-9.74L175.67-9.74Q174.34-9.32 172.94-9.14L172.94-9.14L172.94-9.14Q171.53-8.96 170.21-8.96L170.21-8.96L170.21-8.96Q168.52-8.96 166.88-9.20L166.88-9.20L166.88-9.20Q165.25-9.43 163.65-9.95L163.65-9.95L163.65-9.95Q163.90-8.47 164.44-7.13L164.44-7.13L164.44-7.13Q164.98-5.79 165.87-4.80L165.87-4.80L165.87-4.80Q166.77-3.80 168.09-3.21L168.09-3.21L168.09-3.21Q169.40-2.63 171.20-2.63L171.20-2.63L171.20-2.63Q172.39-2.63 173.47-2.99L173.47-2.99L173.47-2.99Q174.54-3.35 175.44-4.00L175.44-4.00L175.44-4.00Q176.34-4.65 177.03-5.55L177.03-5.55L177.03-5.55Q177.71-6.45 178.14-7.55L178.14-7.55L181.42-6.33L181.42-6.33Q180.68-4.56 179.38-3.27L179.38-3.27L179.38-3.27Q178.09-1.98 176.46-1.13L176.46-1.13L176.46-1.13Q174.84-0.29 173.01 0.11L173.01 0.11L173.01 0.11Q171.17 0.52 169.38 0.52L169.38 0.52L169.38 0.52Q166.41 0.52 163.90-0.48L163.90-0.48L163.90-0.48Q161.38-1.48 159.56-3.28L159.56-3.28L159.56-3.28Q157.74-5.08 156.71-7.57L156.71-7.57L156.71-7.57Q155.68-10.06 155.68-13.03L155.68-13.03L155.68-13.03Q155.68-15.99 156.71-18.49L156.71-18.49L156.71-18.49Q157.74-20.98 159.56-22.78L159.56-22.78L159.56-22.78Q161.38-24.57 163.90-25.57L163.90-25.57L163.90-25.57Q166.41-26.57 169.38-26.57L169.38-26.57L169.38-26.57Q170.82-26.57 172.32-26.37L172.32-26.37L172.32-26.37Q173.83-26.17 175.24-25.73L175.24-25.73L175.24-25.73Q176.66-25.29 177.91-24.59L177.91-24.59L177.91-24.59Q179.17-23.90 180.10-22.88L180.10-22.88L180.10-22.88Q181.04-21.85 181.59-20.51L181.59-20.51L181.59-20.51Q182.14-19.16 182.14-17.43" fill="#df1317" stroke="none" stroke-width="none" transform="translate(-89.99240112304688,14.393135884602861)" style="fill: rgb(223, 19, 23);"></path></g></g>
</g>
</g>
<style id="breath-bc6d2d1e-0ee9-463b-8ed0-c5ba87c1a754" data-anikit="">@keyframes breath-bc6d2d1e-0ee9-463b-8ed0-c5ba87c1a754
{
  0% {
    animation-timing-function: cubic-bezier(0.9647,0.2413,-0.0705,0.7911);
    transform: scale(0.9099999999999999);
  }
  51% {
    animation-timing-function: cubic-bezier(0.9226,0.2631,-0.0308,0.7628);
    transform: scale(1.02994);
  }
  100% {
    transform: scale(0.9099999999999999);
  }
}</style></svg>